<svg width="84" height="84" viewBox="0 0 84 84" fill="none" xmlns="http://www.w3.org/2000/svg">
<path fill-rule="evenodd" clip-rule="evenodd" d="M83.5729 28.201C83.5337 29.1346 83.4986 30.0708 83.4535 31.0044C83.1263 37.9356 80.2634 43.6613 75.2086 48.3237C70.9601 52.244 66.1932 55.4231 61.0174 57.9689C54.1914 61.3253 47.3654 64.6859 40.4844 67.9261C34.0098 70.9763 30.101 73.3983 24.6956 77.4031C22.4011 79.1056 20.6432 81.1695 18.8854 83.3605C19.0941 82.9899 19.2819 82.6059 19.5131 82.2529C21.9136 78.5911 25.1013 75.7073 28.5284 73.0536C33.4756 69.217 38.9235 66.201 44.4023 63.2303C50.4955 59.9265 56.718 56.8395 62.6425 53.2546C67.7541 50.1667 72.4867 46.4765 75.9189 41.3992C78.1066 38.1632 78.9029 34.5549 78.8954 30.7216C78.887 26.3563 78.0106 22.1799 75.8947 18.3333C72.2931 11.786 66.6548 8.52328 59.2738 8.17108C56.6153 8.04475 54.0537 8.50739 51.6323 9.64851C51.573 9.67612 51.5013 9.67361 51.3886 9.56318C52.1056 9.28877 52.8134 8.98509 53.5437 8.75C54.2699 8.51575 55.0186 8.35011 55.7406 8.1167C51.3719 8.68977 47.8462 10.8306 45.2195 14.2858C43.3807 16.7027 41.8824 19.3798 40.2348 21.9432C40.0987 22.1532 39.9719 22.369 39.7532 22.7229C39.4293 21.5165 39.1706 20.4549 38.8584 19.4108C38.3559 17.7267 37.9812 15.9791 37.2667 14.3887C34.8394 8.98592 30.4449 6.26112 24.6839 5.8629C17.0015 5.32914 11.2331 8.64543 7.32096 15.2136C5.12492 18.903 3.96889 22.9061 4.32029 27.2447C4.57737 30.3995 5.80268 33.2339 7.38022 35.9286C9.69895 39.8891 12.5752 43.4463 15.3831 47.0546C16.4757 48.4584 17.5082 49.9074 18.4806 51.435C18.4372 51.4158 18.3763 51.4108 18.3504 51.3781C15.5425 47.7096 12.7088 44.0629 9.94017 40.3651C7.89605 37.6378 6.09982 34.7557 4.94129 31.5181C3.49813 27.4823 3.67258 23.4591 5.0114 19.4409C5.15831 18.9967 5.31439 18.5566 5.45962 18.1107C5.46964 18.0814 5.4254 18.0321 5.21423 17.9359C4.7827 19.4518 4.27104 20.9485 3.9355 22.4836C2.80785 27.6522 4.16337 32.3488 6.85437 36.7268C8.0922 38.7396 9.51031 40.642 10.7456 42.4474C10.7607 42.8473 10.678 43.1652 10.7957 43.366C11.1939 44.0462 11.6262 44.7146 12.1128 45.3354C12.9083 46.3485 13.7471 47.3307 14.5877 48.3095C15.2612 49.0909 15.9866 49.8271 16.6443 50.6235C16.9515 50.9908 17.1518 51.4501 17.3246 51.9261C16.1243 50.5666 14.9282 49.2072 13.7254 47.8527C12.3048 46.2531 10.8324 44.6962 9.46524 43.0523C7.33347 40.4915 5.36364 37.8152 3.80696 34.8469C1.14601 29.7738 0.695286 24.5132 2.27366 19.0226C3.37877 15.1734 5.10405 11.6781 7.74831 8.65714C7.80173 8.5969 7.83762 8.5191 7.88269 8.4505C7.83512 8.41453 7.78921 8.37772 7.74163 8.33923C7.01546 9.23941 6.2509 10.1095 5.57147 11.0406C4.23849 12.8703 3.30031 14.9099 2.39385 16.9805C0.742863 20.7519 0.379778 24.6421 1.05837 28.6544C1.23365 29.6909 1.57253 30.6999 1.83462 31.7214L1.84631 31.7055C1.56085 30.8814 1.18942 30.0758 1.00495 29.2291C-0.0642701 24.3417 0.753714 19.6643 2.73691 15.1559C4.44132 11.2807 6.69829 7.82891 10.2991 5.40193C14.4032 2.63613 18.9146 1.38457 23.8342 1.51592C27.6028 1.61464 31.1969 2.41945 34.3495 4.55027C35.7885 5.52324 37.0054 6.82582 38.3209 7.982C38.537 8.17191 38.7424 8.37437 39.0128 8.50906C38.1598 7.09521 37.048 5.90891 35.7434 4.92758C31.0784 1.41302 25.7857 0.215006 20.0865 1.05663C11.082 2.38515 5.29102 7.77369 1.93562 16.0234C0.454064 19.6676 -0.106004 23.4717 0.338879 27.4037C0.369762 27.6756 0.318012 27.9575 0.305492 28.2344C0.203661 27.2539 0.101831 26.2734 0 25.2904C0.023371 25.0846 0.0676089 24.8771 0.0667742 24.6705C0.0400645 21.171 0.741193 17.8154 2.11006 14.607C4.91541 8.02802 9.53118 3.35895 16.4273 1.15033C17.4706 0.815685 18.544 0.575581 19.6032 0.291137C20.5356 0.194091 21.4679 0.0970456 22.4002 0C23.0747 0.0317908 23.7499 0.0552156 24.4243 0.0936992C31.4039 0.491921 37.0405 3.30039 40.8783 9.32391C41.112 9.69034 41.3466 10.0559 41.5903 10.4391C43.0685 8.65296 44.8055 7.27173 46.7186 6.11722C51.4745 3.25103 56.6412 2.35503 62.0574 3.31126C72.1954 5.10075 79.0039 10.8708 82.2065 20.751C82.6105 21.9951 82.8693 23.2859 83.1948 24.5542C83.3217 25.7706 83.4469 26.9854 83.5729 28.201ZM7.06888 38.5681C6.26175 37.0129 5.41372 35.476 4.6575 33.8957C3.43804 31.3491 2.70769 28.6586 2.67514 25.8225C2.6309 22.0837 3.61666 18.5893 5.30437 15.278C5.39118 15.1065 5.45545 14.9233 5.59568 14.592C4.11245 15.9623 2.51321 21.135 2.41472 25.0026C2.28535 30.09 4.24684 34.4972 7.06888 38.5681ZM33.3545 8.6973C29.6102 4.61552 18.4297 4.07843 14.1411 7.7603C20.7451 4.65903 27.1504 4.57788 33.3545 8.6973Z" fill="black"/>
</svg>
